<svg width="1200" height="200" viewBox="0 0 1200 200" fill="none" xmlns="http://www.w3.org/2000/svg">
  <!-- Logo Icon Group - scaled to fit height -->
  <g transform="translate(0, 10) scale(0.3, 0.3)">
    <g clip-path="url(#clip0_logo_dark)">
      <path d="M186.881 281.063L0.442871 192.28V347.56C0.442871 379.15 18.6179 407.927 47.1065 421.487L142.237 466.78C170.798 480.411 203.614 482.07 233.328 471.396L318.866 440.816C351.466 429.204 373.175 398.335 373.175 363.716V250.194C373.175 232.813 355.937 220.624 339.565 226.466L186.809 280.991L186.881 281.063Z" fill="url(#paint0_linear_logo_dark)"/>
      <path d="M172.529 67.2905L36.4323 2.45187C19.6997 -5.48167 0.442871 6.70713 0.442871 25.1706V192.28L186.881 281.063V90.0093C186.881 80.2726 181.328 71.4736 172.529 67.2905Z" fill="url(#paint1_linear_logo_dark)"/>
      <path style="mix-blend-mode:multiply" opacity="0.3" d="M0.442871 192.28L186.881 230.072V281.063L0.442871 192.28Z" fill="url(#paint2_linear_logo_dark)"/>
      <path style="mix-blend-mode:multiply" opacity="0.3" d="M0.442871 192.28L186.881 255.243V281.063L0.442871 192.28Z" fill="url(#paint3_linear_logo_dark)"/>
      <path style="mix-blend-mode:multiply" opacity="0.3" d="M0.442871 192.28L186.881 272.841V281.063L0.442871 192.28Z" fill="url(#paint4_linear_logo_dark)"/>
      <path style="mix-blend-mode:screen" opacity="0.8" d="M47.1065 421.487L142.237 466.78C156.373 473.487 171.519 477.31 186.809 478.175V281.063L0.442871 192.28V347.56C0.442871 379.15 18.6179 407.927 47.1065 421.487Z" fill="url(#paint5_linear_logo_dark)"/>
    </g>
    <defs>
      <linearGradient id="paint0_linear_logo_dark" x1="-65.1891" y1="375.688" x2="533.144" y2="232.813" gradientUnits="userSpaceOnUse">
        <stop stop-color="#6B9AFF"/>
        <stop offset="1" stop-color="#B0D2FF"/>
      </linearGradient>
      <linearGradient id="paint1_linear_logo_dark" x1="95.1405" y1="276.231" x2="90.4525" y2="-152.613" gradientUnits="userSpaceOnUse">
        <stop stop-color="#6B9AFF"/>
        <stop offset="0.14" stop-color="#7AA5FF"/>
        <stop offset="0.72" stop-color="#9BC7FF"/>
        <stop offset="1" stop-color="#B0D2FF"/>
      </linearGradient>
      <linearGradient id="paint2_linear_logo_dark" x1="-7.13005" y1="175.259" x2="288.358" y2="297.579" gradientUnits="userSpaceOnUse">
        <stop stop-color="#A3CED0"/>
        <stop offset="0.65" stop-color="#E1EFEF"/>
        <stop offset="1" stop-color="white"/>
      </linearGradient>
      <linearGradient id="paint3_linear_logo_dark" x1="11.2613" y1="182.759" x2="331.416" y2="342.079" gradientUnits="userSpaceOnUse">
        <stop stop-color="#A3CED0"/>
        <stop offset="0.65" stop-color="#E1EFEF"/>
        <stop offset="1" stop-color="white"/>
      </linearGradient>
      <linearGradient id="paint4_linear_logo_dark" x1="46.0968" y1="207.353" x2="336.248" y2="361.264" gradientUnits="userSpaceOnUse">
        <stop stop-color="#A3CED0"/>
        <stop offset="0.65" stop-color="#E1EFEF"/>
        <stop offset="1" stop-color="white"/>
      </linearGradient>
      <linearGradient id="paint5_linear_logo_dark" x1="377.935" y1="341.935" x2="-439.364" y2="322.606" gradientUnits="userSpaceOnUse">
        <stop stop-color="#202020"/>
        <stop offset="0.27" stop-color="#4B4B4B"/>
        <stop offset="0.63" stop-color="#8B8B8B"/>
        <stop offset="0.88" stop-color="#C7C7C7"/>
        <stop offset="1" stop-color="#E0E0E0"/>
      </linearGradient>
      <clipPath id="clip0_logo_dark">
        <rect width="372.804" height="478.32" fill="white" transform="translate(0.442871)"/>
      </clipPath>
    </defs>
  </g>
  
  <!-- Text: GenAI Launchpad -->
  <g transform="translate(140, 130)">
    <!-- Import Google Fonts Manrope -->
    <style>
      @import url('https://fonts.googleapis.com/css2?family=Manrope:wght@700&amp;display=swap');
      .logo-text-dark {
        font-family: 'Manrope', sans-serif;
        font-weight: 700;
        font-size: 110px;
        fill: #ffffff;
      }
    </style>
    
    <text class="logo-text-dark" x="0" y="0">
      <tspan>GenAI</tspan>
      <tspan dx="20">Launchpad</tspan>
    </text>
  </g>
</svg>